<svg width="578" height="596" viewBox="0 0 578 596" fill="none" xmlns="http://www.w3.org/2000/svg">
    <path d="M332.183 2.53603C326.849 3.86937 322.047 5.46937 321.516 5.86937C321.115 6.40137 320.713 9.86939 320.584 13.5987C320.584 17.4694 320.047 48.136 319.516 81.8694C318.312 149.599 318.183 148.536 326.713 156.932C331.917 162.136 338.713 164.401 346.849 163.469C365.645 161.203 380.047 146.265 387.917 120.667C391.645 108.667 391.917 85.068 388.448 75.2027C385.115 66.136 376.584 57.2027 370.849 57.2027C362.183 57.2027 351.251 64.2654 345.251 73.8694C342.713 77.8694 342.713 77.4694 343.516 38.8027C344.047 15.5987 344.047 -0.130637 343.251 2.97868e-05C342.584 0.13603 337.645 1.2027 332.183 2.53603ZM365.516 81.068C368.047 86.4014 368.448 89.5987 368.448 103.869C368.448 126.265 363.645 142.667 354.047 152.265C349.917 156.401 348.312 156.667 344.584 154C342.183 152.136 342.047 150.401 342.312 122.401C342.713 88.6667 343.781 82.6667 351.516 76C355.516 72.4014 356.448 72.136 359.38 73.4694C361.115 74.2654 363.917 77.5987 365.516 81.068Z" fill="white"/>
    <path d="M514.312 25.3333C511.516 26.8027 507.917 30.2653 506.312 32.932L503.38 37.8693L502.979 33.8693C502.312 26.6667 502.312 26.6667 491.251 29.3333C485.645 30.6667 480.448 32.2653 479.917 32.8027C479.38 33.3333 478.713 48.932 478.448 67.2027L477.917 100.667L474.312 106.803C466.183 120.803 452.979 130.536 442.312 130.536C432.849 130.536 425.781 122.932 423.516 110.401L422.584 105.469L430.312 103.203C463.917 93.068 478.448 66.4013 460.183 48.6666C446.584 35.3333 422.849 41.3333 409.516 61.3333C401.516 73.2026 399.516 81.4693 399.38 101.203C399.38 115.869 399.781 118.667 402.448 124.536C404.183 128.136 407.645 133.333 410.312 136C425.38 151.599 456.979 142.667 472.979 118.401L476.713 112.667L477.115 123.735C477.38 131.869 477.917 134.667 479.115 134.136C480.047 133.735 484.312 132.803 488.713 131.869C502.312 129.068 501.115 133.068 501.645 88.932L502.047 49.8693L505.516 43.2027C511.38 32.136 518.183 27.8693 514.849 37.3333C512.849 43.2027 512.979 50 515.38 54.4013C518.979 61.5987 525.251 61.7347 532.047 54.8027C535.917 50.932 537.38 48.2653 538.047 43.5987C540.584 26.932 528.584 17.7347 514.312 25.3333ZM442.713 54.8027C445.251 60.6666 445.645 75.8693 443.38 81.8693C440.312 89.5986 426.312 101.469 422.713 99.2027C420.979 98.136 420.979 83.8693 422.713 73.7346C425.516 58.4013 430.849 49.2027 436.979 49.2027C439.516 49.2027 440.713 50.536 442.713 54.8027Z" fill="white"/>
    <path d="M82.0469 49.068C46.312 59.8693 22.9787 86.536 15.2505 125.068C9.25052 155.333 24.4479 184.667 46.0469 184.401C54.0469 184.265 59.5161 181.599 65.1145 175.333C72.312 167.203 73.9172 152.401 68.7136 144.265C66.4479 140.932 60.5839 140.136 56.0469 142.536C51.9172 144.803 46.7136 154.803 46.7136 160.667C46.7136 166.536 50.9787 174.536 54.0469 174.536C55.1145 174.536 56.0469 175.068 56.0469 175.869C56.0469 176.536 54.312 177.203 52.312 177.203C42.9787 177.203 36.0469 160.803 36.0469 138.803C36.0469 102.932 52.312 72 77.9172 59.2027C85.3803 55.3334 88.5839 54.536 95.3803 54.536C108.584 54.536 116.047 58.8027 121.251 69.2027C126.584 79.4694 125.645 99.2027 119.251 112.536C116.183 119.203 105.516 130.536 102.312 130.536C101.38 130.536 101.38 119.068 101.917 96.536C102.448 77.8694 102.448 62.536 101.781 62.6667C101.251 62.6667 95.9172 63.7347 90.0469 64.932L79.3803 67.2027L78.5839 105.869C76.312 206.803 76.0469 225.203 76.8495 225.203C79.7812 225.203 108.312 217.869 115.251 215.333C145.516 204.401 160.584 178.667 152.584 151.735C149.115 140.265 140.312 133.735 124.714 131.203C119.917 130.265 119.645 130.136 122.047 128.667C128.584 124.932 140.448 111.333 144.448 102.803C148.047 95.3334 148.713 92.4014 148.584 84.536C148.448 68.6667 141.38 57.4694 127.115 50.8027C120.312 47.5987 117.516 47.2027 104.714 46.9321C93.6453 46.6667 88.0469 47.2027 82.0469 49.068ZM116.312 140.265C126.849 144.667 131.645 156.667 130.312 175.333C129.917 181.203 128.979 188 128.183 190.667C126.047 197.599 118.448 205.735 110.312 209.735C103.38 213.068 97.9172 214.265 99.2505 212.136C99.5161 211.599 99.9172 200.932 100.047 188.536C100.183 176 100.584 159.469 100.979 151.469L101.781 137.203L106.714 137.735C109.38 138.136 113.781 139.203 116.312 140.265Z" fill="white"/>
    <path d="M290.312 75.9999C287.645 77.4693 284.047 80.6666 282.312 83.2026C278.584 89.0679 277.38 89.0679 278.312 83.2026C279.251 77.5986 279.251 77.5986 265.115 80.8026C255.115 83.0679 254.713 83.3333 254.448 87.2026C254.183 92.8026 253.645 107.869 253.516 120.932C253.38 131.869 253.38 132 250.448 130.932C248.713 130.401 244.584 130 241.251 130.136L235.115 130.265L234.183 120.265C232.312 97.3333 223.251 90.4013 201.917 95.0679C196.183 96.2653 187.645 101.599 182.047 107.203C166.849 122.932 158.584 158 164.849 179.735C166.448 184.932 166.448 186.932 164.849 193.203C162.448 202.536 162.979 211.735 166.584 222.265C168.183 226.932 169.115 231.869 168.713 233.333C167.781 236 172.849 246 177.781 251.469L180.448 254.401L176.979 259.599C171.115 268.536 163.781 284.136 160.047 295.869C144.849 343.333 158.849 396.803 196.183 433.068C200.849 437.599 207.645 443.333 211.251 445.599C218.448 450.265 220.047 453.333 220.849 463.203C222.183 478.667 227.917 486.136 238.849 486.667C242.312 486.803 248.047 488.667 252.713 491.068C263.917 496.803 270.584 496.667 279.38 490.536C283.115 488 291.781 483.068 298.713 479.735C305.645 476.402 313.781 472.136 316.713 470.265C319.645 468.402 325.516 465.869 329.917 464.667C338.448 462.136 360.312 451.203 368.047 445.469C384.047 433.735 395.251 421.469 405.115 405.068C423.115 374.932 428.713 342.401 421.917 307.869C420.849 302.401 419.38 296.667 418.849 295.203C418.183 293.735 416.312 289.203 414.713 285.203C413.115 281.203 409.781 274.136 407.251 269.469C404.713 264.932 402.713 259.333 402.713 257.203C402.713 250.265 390.713 231.203 382.849 225.735C381.645 224.803 376.849 220.401 372.312 215.869C364.448 208.136 352.849 201.203 347.781 201.203C346.448 201.203 343.115 199.068 340.312 196.536C337.38 194 332.047 190.536 328.312 188.803C324.584 187.068 319.115 183.469 316.183 180.803C310.849 176 303.917 173.203 297.115 173.203C294.312 173.203 292.448 171.869 289.251 167.469C286.979 164.401 283.251 160.932 280.979 159.869L276.713 157.869L277.115 129.333C277.516 102.401 277.781 100.401 280.713 94.6666C284.047 87.9999 288.713 82.5359 290.849 82.5359C291.781 82.5359 291.917 83.4693 291.38 84.8026C290.713 86.1359 290.047 90.8026 289.781 95.2026C289.251 102 289.516 103.735 292.047 106.803C299.781 116.667 313.38 105.869 313.38 89.9999C313.38 82.4013 311.516 78.2653 306.713 75.4693C301.781 72.5359 296.584 72.6666 290.312 75.9999ZM210.849 104.136C211.38 104.932 211.645 107.203 211.38 109.068C211.251 110.932 210.979 118.536 210.849 125.869L210.713 139.203L203.516 142.932C199.516 145.068 193.781 148.932 190.584 151.599L184.979 156.401L185.645 144.536C186.713 126.932 194.713 106.932 202.312 102.667C205.115 101.203 209.516 101.869 210.849 104.136ZM251.115 136.401C256.849 138.536 265.38 144.667 265.38 146.803C265.38 147.599 264.047 147.203 262.448 146C255.917 141.203 248.584 138.536 242.047 138.667H235.38L242.979 141.068C252.312 144.136 257.917 147.469 264.713 154.401C267.516 157.469 270.584 159.869 271.516 159.869C272.312 159.869 274.584 161.068 276.584 162.667C278.448 164.136 280.047 164.932 280.047 164.401C280.047 162.536 285.115 168.136 286.584 171.599C288.312 175.735 294.047 178.803 298.183 177.735C299.781 177.333 301.516 177.599 301.917 178.401C302.448 179.203 304.312 179.869 306.047 179.869C307.917 179.869 311.38 182 314.584 185.203C317.516 188.136 320.713 190.536 321.781 190.536C322.713 190.536 324.713 191.469 326.183 192.536C327.516 193.599 329.781 194.536 330.979 194.536C332.183 194.536 334.713 196.536 336.584 198.932C338.849 201.869 342.047 204 345.645 205.068C356.584 208.136 362.584 212.265 376.979 226.401C392.713 241.735 397.645 249.599 399.115 261.869C400.584 273.333 401.645 277.735 403.38 281.203C405.645 285.469 406.183 305.203 404.312 313.203C401.516 324.803 400.047 332.667 397.38 350.136C394.312 370.136 391.38 377.869 384.713 383.735C379.115 388.667 374.183 389.068 367.516 385.068C364.979 383.599 362.312 382.667 361.645 383.068C358.584 384.932 356.047 398 355.38 414.803C354.979 424.536 354.312 433.469 353.917 434.803C353.645 436 348.979 440.265 343.645 444.401C338.312 448.536 329.917 455.203 324.713 459.203C319.645 463.333 308.448 470 300.047 474.136C291.645 478.402 281.781 483.735 278.183 486.136C269.781 491.869 263.516 492 253.781 486.536C248.979 483.735 244.979 482.536 240.979 482.536C237.115 482.536 233.917 481.598 231.781 479.869C228.183 477.068 225.38 468.667 225.38 460.667C225.38 458.136 223.917 453.203 222.183 449.735C220.448 446.265 219.251 442.667 219.516 441.869C219.917 441.068 218.849 437.333 217.251 433.735C213.516 425.068 212.312 402.401 215.251 395.333C217.115 390.803 217.115 390.536 214.312 388.536C212.713 387.469 210.713 386.536 209.917 386.536C205.516 386.536 202.584 381.469 199.251 367.869L195.917 353.869L198.849 346.803L201.645 339.735L197.38 332.803C193.38 326.401 193.115 325.203 193.917 318.136C194.312 313.869 195.38 309.068 196.183 307.469C197.115 305.735 197.917 297.469 198.047 287.203C198.183 277.735 198.713 268.667 199.115 267.203C199.917 265.068 198.849 263.735 193.917 260.536C188.183 256.803 176.979 244.136 173.516 237.469C170.849 232.401 173.781 234.265 179.38 241.203C182.312 244.803 185.251 247.735 185.781 247.869C186.448 247.869 184.849 245.333 182.448 242.136C175.917 234.136 174.047 230.803 171.645 223.203C164.312 199.735 169.917 178.136 188.047 160C195.38 152.536 199.917 149.469 211.516 143.869C219.516 140 227.516 136.401 229.38 135.735C234.713 134.136 245.645 134.536 251.115 136.401Z" fill="white"/>
    <path d="M244.849 153.469C248.713 160.667 249.516 170.401 246.713 177.333C245.645 179.869 242.584 185.599 239.645 190.136C236.849 194.667 234.849 199.068 235.251 199.735C235.645 200.401 235.115 203.469 234.047 206.536C232.979 209.599 232.047 213.469 232.183 215.068C232.183 216.803 232.849 215.735 233.917 212.536C235.781 206.536 240.047 198 240.713 198.803C240.979 199.068 239.917 202.803 238.448 207.203C233.115 223.203 237.38 241.599 248.183 249.333C250.584 251.068 255.115 252.536 258.849 252.932C262.448 253.203 264.979 254 264.584 254.667C263.645 256.265 255.645 256.136 251.251 254.536C249.251 253.735 247.38 253.469 246.979 253.869C246.584 254.265 248.183 255.333 250.448 256.136C256.849 258.536 255.645 260.265 248.047 259.599C244.448 259.203 241.781 259.469 242.183 260.136C243.38 262.136 238.713 261.203 232.979 258.401L227.38 255.599L230.713 259.068L234.047 262.667L230.448 261.333C227.38 260.136 226.979 260.265 227.645 262C228.312 263.735 227.251 263.469 222.584 261.203C216.713 258.136 216.713 258.136 219.251 261.068C222.584 264.803 220.448 264.667 211.115 260.401L203.38 257.068L212.448 266.401L208.713 266.136C205.645 265.869 204.713 266.536 203.251 270.536C200.183 279.203 201.251 304.803 204.448 296.803C204.979 295.735 205.251 295.735 205.251 297.068C205.38 298.136 204.584 300 203.516 301.068C200.584 304.401 197.38 315.469 197.516 321.599C197.645 324.932 197.917 325.869 198.312 323.869C199.781 314.265 205.38 311.068 216.183 313.333C221.917 314.536 226.448 317.203 222.849 317.203C222.047 317.203 222.448 318.932 223.645 321.068C226.183 325.469 230.713 325.203 230.849 320.667C230.849 317.869 230.849 317.869 232.047 320.803C232.713 322.401 234.849 324.136 236.713 324.667C240.183 325.469 247.38 331.599 246.312 332.667C246.047 332.932 244.312 332.136 242.448 330.667C240.713 329.203 237.115 327.735 234.584 327.203C229.251 326.265 227.516 327.599 226.047 334.136C225.645 336.536 223.781 340.536 221.917 343.203C220.183 345.869 218.713 349.068 218.713 350.265C218.713 353.333 213.781 361.068 211.251 362.136C210.183 362.536 208.183 361.869 206.979 360.667C204.979 358.667 205.115 358.536 208.047 358.536H211.38L208.448 356.136C206.849 354.932 204.979 352.401 204.312 350.536L203.115 347.333L201.516 350.401C200.047 352.932 200.312 355.599 202.849 365.599C204.448 372.401 206.183 378.803 206.713 379.869C207.38 380.932 210.849 383.068 214.713 384.536C220.312 386.667 221.516 387.599 220.849 389.869C220.584 391.333 219.645 394.932 218.849 397.869C218.047 400.803 217.38 405.203 217.38 407.469C217.38 411.203 217.781 411.869 220.584 411.869C222.448 411.869 224.312 411.203 224.713 410.536C226.047 408.401 230.448 408.932 231.781 411.333C232.849 413.333 233.115 413.333 233.781 411.333C234.849 408.667 241.251 408.536 242.183 411.203C242.713 412.536 244.183 412.803 246.849 412.265C249.115 411.869 251.516 412.265 252.713 413.203C254.047 414.265 254.713 414.401 254.713 413.469C254.713 410.803 260.047 408.803 262.183 410.667C263.38 411.599 264.584 411.735 265.781 410.932C266.584 410.136 270.849 409.469 274.979 409.469C279.251 409.333 284.312 408.401 286.448 407.333C288.979 406 290.849 405.869 292.448 406.803C294.183 407.735 295.516 407.599 296.713 406.536C297.781 405.599 299.917 405.203 301.516 405.599C303.115 406 306.047 405.203 308.448 403.869C310.713 402.401 312.979 401.599 313.645 402C314.183 402.401 314.713 402 314.713 401.333C314.713 400.536 314.047 399.869 313.251 399.869C312.448 399.869 312.047 398.932 312.584 397.869C312.979 396.803 312.849 395.869 312.312 395.869C311.781 395.869 311.251 394.667 311.115 393.068C310.849 389.599 306.849 386.401 303.781 387.068C302.584 387.333 300.448 386.803 298.979 385.735C297.516 384.803 295.917 384.401 295.38 384.932C294.713 385.469 294.713 385.203 295.115 384.401C295.645 383.599 299.516 382.536 303.781 382.136C308.047 381.599 314.183 380.136 317.516 378.667C320.713 377.068 326.183 375.869 329.516 375.869C334.584 375.869 337.516 374.667 346.448 368.803C352.448 365.068 361.645 359.203 366.849 355.869C372.047 352.536 377.645 348.136 379.115 345.869L382.047 341.869L376.713 345.869C371.781 349.469 371.645 349.469 374.448 346.401C376.047 344.536 377.115 342.667 376.713 342.265C376.312 341.869 379.917 338.401 384.713 334.536C389.645 330.803 393.917 327.869 394.183 328.136C394.979 329.068 385.645 344.136 381.645 348.136C379.781 350.265 378.849 351.869 379.645 351.869C380.448 351.869 381.781 350.932 382.713 349.869C384.047 348.265 384.584 348.265 386.047 349.735C388.312 352 387.781 359.735 385.251 361.333C383.645 362.265 383.645 362.536 385.38 362.536C386.713 362.536 386.312 363.469 384.047 365.203C381.251 367.469 381.115 367.735 383.38 367.068C385.917 366.401 385.917 366.401 383.645 368.265C381.917 369.735 381.645 370.401 382.979 370.803C384.047 371.203 383.115 372.265 380.713 373.735C377.38 375.599 377.251 375.869 379.781 375.333C381.781 374.932 382.713 375.333 382.312 376.265C382.047 377.203 380.312 378 378.312 378.265C375.781 378.536 375.115 379.333 375.645 380.803C376.312 382.401 375.251 382.136 370.713 379.869C367.645 378.265 364.713 377.333 364.312 377.735C363.917 378.136 363.917 378.667 364.183 378.803C368.979 381.735 374.183 383.869 376.584 383.869C379.917 383.869 385.38 378.667 388.448 372.536C391.645 366 399.115 318.536 396.849 318.536C396.584 318.536 393.38 320 389.781 321.869C381.645 326 370.448 329.068 369.781 327.203C369.645 326.401 366.448 326.136 362.713 326.265C359.115 326.536 356.047 326.265 356.047 325.599C356.047 324.932 353.38 323.599 350.047 322.667C342.849 320.536 342.312 319.068 348.713 319.203C351.251 319.333 353.38 318.932 353.38 318.265C353.38 317.735 351.115 317.203 348.448 317.203C344.979 317.203 343.917 316.803 345.251 316C346.584 315.203 345.917 314.536 342.713 313.869C339.516 313.203 338.849 312.536 340.183 311.735C341.645 310.803 341.38 310.536 339.38 310.536C337.38 310.536 337.115 310.136 338.448 309.333C339.781 308.536 339.516 308 337.115 307.333C334.183 306.401 334.183 306.401 336.713 305.203C339.115 304.136 339.115 304 336.047 304C333.516 303.869 333.115 303.599 334.713 302.536C336.448 301.469 336.448 301.333 334.713 300.667C329.115 298.932 328.849 298.803 331.781 298.667C336.448 298.536 335.251 295.869 330.448 295.735C326.183 295.735 326.047 295.735 329.38 294.401L332.713 292.932L324.713 289.469L328.713 289.203L332.713 289.068L329.38 287.203C326.047 285.333 326.047 285.333 331.38 285.203L336.713 284.932L327.38 281.469L331.781 281.333C336.713 281.203 337.516 279.068 333.115 278.136C331.251 277.735 332.183 277.469 335.38 277.333L340.713 277.068L336.713 274.932C331.38 272.136 334.047 271.333 343.516 273.068C352.584 274.803 354.448 274 346.849 271.735C343.781 270.803 341.38 269.735 341.38 269.203C341.38 267.869 349.645 268.932 357.251 271.333C364.312 273.469 365.917 272.932 360.047 270.536C354.713 268.265 354.849 266.401 360.312 268C366.047 269.599 366.047 269.599 363.917 267.068C362.312 265.068 362.448 264.932 364.713 265.735C366.183 266.136 369.251 266 371.516 265.333C373.781 264.667 376.448 264.536 377.251 265.203C378.183 265.735 380.312 265.869 382.183 265.469C384.849 264.932 385.115 264.536 383.917 262.932C382.979 262 381.516 261.333 380.448 261.735C379.516 262.136 378.713 262 378.713 261.333C378.713 260.265 377.917 260.265 367.781 261.735C364.979 262.136 362.713 262 362.713 261.469C362.713 260.136 349.115 260.401 346.849 261.735C345.516 262.667 345.251 262.265 346.047 260C346.849 257.333 346.713 257.333 343.251 260.536C341.38 262.265 339.115 263.469 338.448 263.068C337.781 262.667 336.448 263.068 335.38 263.869C332.713 266 332.849 264.803 335.917 258.803C340.584 249.469 340.713 246.667 336.183 252.932C332.183 258.265 324.183 264.536 322.979 263.203C322.584 262.803 323.115 261.735 324.047 260.536C326.183 258 325.516 258 320.183 260.667C315.115 263.203 312.849 262 317.115 259.068C318.713 258 320.713 255.735 321.516 254.136C322.979 251.333 322.979 251.333 320.584 253.333C319.251 254.536 316.713 256 314.979 256.536L312.047 257.333L314.979 252.265L318.047 247.203L312.979 251.068L307.781 255.068L308.713 250.136C309.781 244.803 308.312 243.735 305.645 247.869C304.713 249.333 303.115 250.536 301.917 250.536C300.312 250.536 300.047 250 300.979 248.803C301.781 248 302.713 246 303.251 244.536C303.781 242.803 302.849 243.333 300.448 246.265C295.38 252.136 294.312 251.599 297.38 244.803C302.448 233.735 300.448 233.469 291.781 244.265C285.917 251.599 286.047 251.735 288.849 240.536C289.38 238.536 288.713 238.803 286.183 241.869C282.713 245.869 281.516 244.667 284.047 239.735C286.448 235.333 284.448 236.932 281.38 241.869C279.781 244.401 277.251 247.203 275.781 248L272.979 249.469L275.645 245.735C278.713 241.469 285.38 228.536 285.38 226.932C285.38 226.401 284.448 227.203 283.251 228.667C281.38 231.068 281.251 231.068 282.183 227.869C282.584 226 283.917 222.536 284.849 220C285.917 217.599 286.713 214.536 286.713 213.469C286.713 210.265 277.645 229.869 275.917 236.667C274.448 242.265 269.38 247.599 269.38 243.599C269.38 242.401 268.979 242.401 268.047 243.869C267.251 245.068 266.713 245.333 266.713 244.265C266.713 243.333 265.917 242.932 264.849 243.333C263.781 243.735 262.713 243.068 262.312 241.599C261.781 239.735 261.645 239.869 261.516 242.265C261.516 244 260.713 244.932 260.047 244.536C258.448 243.599 258.849 247.599 260.584 250.401C261.516 251.735 260.979 252 258.584 251.203C252.183 249.203 248.047 246.401 244.448 241.599C240.979 237.068 240.713 235.869 240.713 224.667C240.713 213.469 241.115 211.869 245.251 203.869C251.251 192 257.38 176.401 257.251 172.803C257.251 170 257.115 170 256.047 172.536C255.251 174.401 254.849 172.803 254.584 166.536C254.312 158.265 254.312 158.136 253.516 163.869L252.713 169.869L250.979 163.068C249.917 159.333 247.38 154.136 245.251 151.735L241.38 147.203L244.849 153.469ZM246.713 195.869C246.713 196.536 246.047 197.203 245.251 197.203C244.584 197.203 244.312 196.536 244.713 195.869C245.115 195.068 245.781 194.536 246.183 194.536C246.448 194.536 246.713 195.068 246.713 195.869ZM242.979 202.803C242.047 203.735 241.38 203.869 241.38 203.068C241.38 201.203 242.979 199.599 243.917 200.536C244.183 200.932 243.781 202 242.979 202.803ZM247.917 285.735C247.645 286 245.917 286.932 244.047 287.869C240.979 289.469 240.849 289.469 242.584 287.469C243.516 286.136 245.251 285.203 246.448 285.203C247.516 285.203 248.183 285.469 247.917 285.735ZM249.516 289.333C246.183 290.803 242.584 292.667 241.516 293.599C239.917 294.932 239.781 294.803 240.584 293.469C242.183 290.803 249.645 286.536 252.713 286.536C254.312 286.536 253.115 287.599 249.516 289.333ZM259.115 289.869C255.38 290.667 249.516 293.068 245.917 295.203C240.584 298.265 239.781 298.401 241.781 296.136C245.516 292 261.645 286 264.713 287.735C265.38 288 262.849 289.068 259.115 289.869ZM310.312 314.136C311.781 316.536 313.38 318.136 313.781 317.599C314.312 317.203 314.713 317.469 314.713 318.401C314.713 319.333 315.251 319.735 316.047 319.203C316.713 318.803 317.917 320.932 318.713 323.869C320.047 328.803 320.448 329.203 322.312 327.599C324.312 326 324.312 326.136 322.849 328.803C320.979 332.401 323.251 333.068 325.251 329.469C326.047 328.265 326.713 327.869 326.713 328.536C326.713 329.333 325.645 331.469 324.448 333.203L322.312 336.536L325.781 333.333C327.781 331.469 329.38 330.667 329.38 331.469C329.38 332.136 328.183 333.869 326.713 335.203C325.251 336.536 324.312 338 324.713 338.265C325.115 338.667 327.251 337.203 329.645 335.068C334.047 331.068 333.516 333.068 328.979 338.136C325.115 342.401 327.781 342 332.448 337.469C335.645 334.667 336.047 334.401 334.979 336.667C334.183 338.136 332.584 340.136 331.516 341.203C330.312 342.136 329.38 343.469 329.38 344.265C329.38 345.068 331.645 343.599 334.312 341.068L339.251 336.536L335.516 341.469C331.516 347.068 332.183 348.136 336.979 343.599C339.516 341.333 340.047 341.068 339.251 342.932C338.713 344.265 339.115 345.203 340.047 345.203C341.251 345.203 341.251 345.735 339.917 347.469C338.713 348.932 338.584 349.333 339.645 348.667C340.584 348.136 342.312 348.265 343.516 348.932C344.713 349.599 348.047 349.735 350.849 349.203C357.516 348 357.645 349.869 351.115 351.469C337.645 354.667 326.047 348.803 320.448 336C318.584 331.869 315.115 325.735 312.584 322.401C305.645 312.803 303.38 306.401 305.38 301.203C305.516 300.803 306.183 302.667 306.584 305.203C307.115 307.735 308.849 311.869 310.312 314.136ZM247.38 307.869C247.781 308.536 247.645 309.203 246.849 309.203C246.183 309.203 245.115 308.536 244.713 307.869C244.312 307.068 244.448 306.536 245.251 306.536C245.917 306.536 246.979 307.068 247.38 307.869ZM240.183 311.469C241.917 313.599 241.781 313.735 239.781 312C238.448 311.068 237.38 310 237.38 309.735C237.38 308.667 238.448 309.333 240.183 311.469ZM244.713 310.536C245.115 311.333 244.584 311.469 243.516 311.068C241.115 310.136 240.713 309.203 242.584 309.203C243.38 309.203 244.312 309.735 244.713 310.536ZM239.251 315.735C238.979 316.136 237.645 315.333 236.312 314C234.183 311.735 234.183 311.599 236.979 313.333C238.584 314.265 239.645 315.333 239.251 315.735ZM287.38 315.469C293.917 318.803 298.584 324 299.516 329.068C300.047 331.735 300.979 334.536 301.645 335.333C302.312 336.265 302.849 339.735 302.979 343.203C302.979 348.536 302.448 350 298.713 354C296.183 356.401 292.183 359.203 289.645 360C279.645 363.333 260.183 359.203 254.849 352.667C253.251 350.803 253.516 350.803 258.183 352.667L263.38 354.803L258.448 350C252.849 344.667 251.38 340.136 256.713 345.203C258.584 346.932 260.312 348 260.713 347.599C261.115 347.203 260.584 346.136 259.38 345.203C257.115 343.333 256.584 340.536 258.713 341.869C260.584 342.932 260.448 341.469 257.917 333.068C256.047 327.203 255.516 326.401 254.584 328.536L253.516 331.203L253.251 328.536C252.849 325.068 252.979 322.667 253.917 318.265C254.448 315.333 254.183 314.803 252.312 315.333C250.448 316 250.584 315.599 252.713 313.869C254.979 312 257.38 311.735 269.38 312.536C277.38 313.068 285.115 314.401 287.38 315.469ZM250.979 325.203C251.516 331.068 249.917 332.401 248.584 327.203C247.781 324.136 248.584 319.869 249.917 319.869C250.183 319.869 250.713 322.265 250.979 325.203ZM386.713 327.869C385.645 328.536 383.781 329.068 382.713 329.068C381.38 329.068 381.645 328.667 383.38 327.869C386.979 326.265 389.115 326.265 386.713 327.869ZM234.979 340.136C234.183 340.932 234.047 340.136 234.448 337.599C235.115 334.803 235.38 334.536 235.781 336.401C236.047 337.735 235.781 339.333 234.979 340.136ZM238.312 337.469C237.917 338.536 237.516 338.136 237.516 336.667C237.38 335.203 237.781 334.401 238.183 334.932C238.584 335.333 238.713 336.536 238.312 337.469ZM238.312 356.401C248.312 371.469 250.183 379.333 245.251 385.735C241.917 390 239.251 390.136 235.115 386.401L232.183 383.469L229.645 386.536C227.38 389.333 227.115 389.333 225.115 387.333C222.312 384.536 221.115 375.068 222.047 360.536C222.584 351.203 223.251 348.136 224.979 346.803C228.979 344 230.979 345.469 238.312 356.401ZM342.183 357.068C341.781 357.735 340.047 358.536 338.448 358.932C335.516 359.735 335.516 359.599 337.917 357.869C340.849 355.599 343.251 355.203 342.183 357.068ZM341.917 361.203C341.115 362 338.183 362.932 335.251 363.203L330.047 363.869L335.38 362C342.047 359.735 343.645 359.469 341.917 361.203ZM343.917 363.469C342.312 365.469 342.312 365.599 344.448 364.803C348.584 363.203 346.849 365.203 340.448 369.203C335.781 372.265 332.713 373.203 328.183 373.068L322.047 372.932L329.38 371.333C336.713 369.735 343.516 366.803 342.312 365.735C342.047 365.469 339.645 366.136 336.979 367.203C334.312 368.265 331.115 369.203 330.047 369.203C326.713 369.203 329.115 366.536 332.448 366.536C334.047 366.401 337.516 365.333 340.047 363.869C345.781 360.667 346.183 360.667 343.917 363.469ZM212.979 367.333C212.584 367.735 211.38 367.869 210.448 367.469C209.38 367.068 209.781 366.667 211.251 366.667C212.713 366.536 213.516 366.932 212.979 367.333ZM284.047 373.735C284.047 375.203 281.516 375.735 280.713 374.536C280.312 373.869 280.849 373.203 281.917 373.203C283.115 373.203 284.047 373.469 284.047 373.735ZM283.516 377.203C285.645 377.203 286.584 377.735 285.917 378.667C284.979 380.265 278.713 379.068 276.713 376.932C275.781 375.869 276.183 375.735 277.781 376.401C279.115 376.803 281.781 377.203 283.516 377.203ZM286.312 383.333C285.917 383.735 284.713 383.869 283.781 383.469C282.713 383.068 283.115 382.667 284.584 382.667C286.047 382.536 286.849 382.932 286.312 383.333ZM230.312 397.469C230.047 399.203 229.781 398.136 229.781 395.203C229.645 392.265 229.917 390.932 230.312 392.136C230.584 393.469 230.584 395.869 230.312 397.469ZM292.584 398.803C293.645 404.667 291.516 405.735 289.917 400.136C288.584 395.333 288.448 394.136 289.115 392.803C290.047 390.803 291.645 393.599 292.584 398.803ZM303.645 392.667C303.251 393.068 302.047 393.203 301.115 392.803C300.047 392.401 300.448 392 301.917 392C303.38 391.869 304.183 392.265 303.645 392.667ZM252.047 397.068C252.047 400.667 250.584 404 249.516 403.203C248.183 402.401 249.38 394.536 250.849 394.536C251.516 394.536 252.047 395.735 252.047 397.068ZM303.115 395.469C302.183 395.735 300.584 395.735 299.781 395.469C298.849 395.068 299.516 394.803 301.38 394.803C303.251 394.803 303.917 395.068 303.115 395.469ZM223.645 399.869C222.713 402.136 221.917 403.333 221.645 402.667C221.251 401.333 223.645 395.869 224.584 395.869C224.979 395.869 224.448 397.735 223.645 399.869ZM240.979 403.469C240.584 404.803 240.312 403.735 240.312 401.203C240.312 398.667 240.584 397.599 240.979 398.803C241.251 400.136 241.251 402.265 240.979 403.469ZM261.917 401.869C262.584 404.803 262.448 405.333 261.38 403.869C260.713 402.803 260.047 400.667 260.047 399.333C260.047 395.869 260.849 396.932 261.917 401.869ZM273.917 399.203C274.312 400.265 274.047 401.203 273.38 401.203C272.584 401.203 272.047 400.265 272.047 399.203C272.047 398.136 272.312 397.203 272.584 397.203C272.849 397.203 273.38 398.136 273.917 399.203ZM303.115 398.136C302.183 398.401 300.584 398.401 299.781 398.136C298.849 397.735 299.516 397.469 301.38 397.469C303.251 397.469 303.917 397.735 303.115 398.136Z" fill="white"/>
    <path d="M230.312 362.536C231.38 378.265 234.183 383.599 233.781 369.469C233.516 356 233.645 356.803 231.38 353.735C229.645 351.469 229.516 352.401 230.312 362.536Z" fill="white"/>
    <path d="M236.312 372.536C236.312 374.667 236.584 375.469 236.979 374.136C237.251 372.932 237.251 371.068 236.979 370.136C236.584 369.333 236.312 370.265 236.312 372.536Z" fill="white"/>
    <path d="M197.781 155.599C188.448 162.667 178.448 175.333 175.38 183.869C172.584 191.735 173.115 193.735 176.047 186.803C180.979 176 189.645 165.469 204.713 152.667C211.645 146.803 206.448 148.932 197.781 155.599Z" fill="white"/>
    <path d="M222.849 154.136C220.584 156.932 218.713 159.599 218.713 160.136C218.713 160.803 218.047 161.203 217.251 161.203C216.448 161.203 216.979 159.068 218.584 156.401C224.713 146.136 219.645 150.803 212.047 162.536C209.781 166 208.047 167.599 208.047 166.265C208.047 165.068 208.713 163.599 209.38 163.203C210.183 162.803 210.713 161.735 210.713 160.932C210.713 159.068 206.849 164.136 202.312 171.869C197.38 180.136 197.781 177.068 202.849 168L206.849 160.536L202.849 165.203C199.115 169.469 192.047 180.536 192.047 182.136C192.047 182.536 192.979 182.136 194.047 181.203C195.645 179.869 195.781 180.265 194.448 184.136C192.312 190.667 191.645 204.667 193.251 207.469C194.312 209.333 194.713 207.735 194.713 200.536C194.713 194.265 195.645 189.333 197.38 185.469C200.448 178.803 202.047 177.869 199.251 184.536C198.312 187.068 197.38 190.136 197.38 191.469C197.516 192.932 198.183 192.136 199.38 189.469C202.183 183.203 202.584 184.265 200.584 192.136C198.183 201.203 198.448 204.932 200.849 197.333C201.917 194 203.38 190.667 204.183 190C205.38 188.932 205.516 189.203 204.849 191.203C203.115 196.136 202.584 204.536 203.917 208.536C204.979 212 205.115 211.469 205.251 204.265C205.38 199.735 205.917 195.735 206.448 195.333C207.115 194.932 207.38 196.536 207.115 198.932C206.979 201.333 207.917 199.333 209.251 194.401C210.584 189.599 212.312 184.536 213.251 183.068C214.713 180.803 214.849 180.803 214.047 183.869C211.917 191.735 211.781 194.536 213.38 194.536C214.584 194.536 214.849 196 214.448 198.803C214.047 201.203 214.183 204.401 214.713 205.869C215.38 207.599 215.781 206.265 216.448 201.203C217.516 190.401 220.849 181.735 228.183 170.536L234.713 160.536L229.38 166.136C222.713 173.068 222.584 171.735 228.849 162.401L233.781 155.203L229.38 159.203C225.251 163.068 225.115 163.068 226.713 159.869C227.645 158 229.38 155.333 230.584 154C232.713 151.469 232.584 151.469 229.38 153.599C227.516 154.803 224.849 157.599 223.38 159.869C221.917 162 220.183 163.869 219.516 163.869C218.183 163.869 221.781 157.869 225.781 153.599C227.251 151.869 228.183 150.265 227.781 149.869C227.38 149.333 225.115 151.333 222.849 154.136Z" fill="white"/>
    <path d="M198.448 163.469C194.312 168 187.645 178.536 188.448 179.333C188.849 179.735 192.047 175.469 195.781 169.869C199.38 164.401 202.312 159.869 202.183 159.869C202.047 159.869 200.312 161.469 198.448 163.469Z" fill="white"/>
    <path d="M230.448 171.599C225.38 179.068 221.38 187.469 221.38 190.136C221.516 191.735 222.448 190.932 224.047 187.869L226.584 183.203L226.047 187.869C225.645 190.401 225.781 191.599 226.183 190.536C226.713 189.469 228.183 186.265 229.645 183.333C231.115 180.536 231.516 178.667 230.713 179.203C228.849 180.401 229.917 176.136 232.979 170.136C235.516 164.932 234.312 165.599 230.448 171.599Z" fill="white"/>
    <path d="M244.713 171.333C242.713 177.599 238.584 185.333 237.516 184.667C236.849 184.265 233.917 188.803 230.849 194.667C226.183 203.869 225.38 206.536 225.516 212.932L225.781 220.536L226.713 213.203C227.781 205.068 230.183 199.599 236.979 190.136C241.645 183.735 247.38 170.803 246.183 169.469C245.781 169.068 245.115 170 244.713 171.333Z" fill="white"/>
    <path d="M262.312 175.869C261.38 181.203 257.38 189.469 247.516 206.803C240.448 218.932 244.849 216.136 252.312 203.735C260.584 190 264.448 179.599 263.781 173.735C263.38 170.401 263.251 170.803 262.312 175.869Z" fill="white"/>
    <path d="M277.781 191.599C276.849 194.401 273.781 200.932 270.979 206C268.047 211.068 265.251 216.667 264.713 218.536C263.516 223.203 275.38 202.401 278.183 195.203C279.38 192 280.183 188.803 279.917 188C279.645 187.203 278.713 188.803 277.781 191.599Z" fill="white"/>
    <path d="M258.713 196.136C256.312 200 254.312 204.803 254.312 206.803C254.312 208.803 253.645 210 252.979 209.599C252.183 209.068 252.047 209.469 252.584 210.401C253.917 212.401 253.781 212.667 258.713 203.203C262.183 196.667 264.713 189.203 263.38 189.203C263.251 189.203 261.115 192.401 258.713 196.136Z" fill="white"/>
    <path d="M177.38 195.333C176.584 197.203 176.183 201.203 176.183 204.265C176.312 209.869 176.448 209.869 177.38 202.932C177.917 199.068 178.713 194.932 179.251 193.869C179.645 192.803 179.645 191.869 179.251 191.869C178.979 191.869 178.047 193.469 177.38 195.333Z" fill="white"/>
    <path d="M296.183 195.869C295.917 198.401 295.645 201.735 295.38 203.203C295.115 204.536 295.516 206.536 296.312 207.469C297.115 208.536 297.38 211.869 296.849 216.265C296.183 221.068 296.448 222.536 297.38 221.203C298.849 218.932 298.979 209.203 297.38 198.536C296.584 192.536 296.312 192 296.183 195.869Z" fill="white"/>
    <path d="M180.979 197.735C180.312 200.536 180.183 203.068 180.584 203.469C181.781 204.803 182.979 200.265 182.448 196.265C182.047 192.803 181.917 192.932 180.979 197.735Z" fill="white"/>
    <path d="M219.516 195.203C219.115 196.265 219.38 197.203 220.047 197.203C220.849 197.203 221.38 196.265 221.38 195.203C221.38 194.136 221.115 193.203 220.849 193.203C220.584 193.203 220.047 194.136 219.516 195.203Z" fill="white"/>
    <path d="M308.979 201.599C309.251 207.869 309.115 209.203 308.047 206.803C306.047 202.265 305.645 203.203 305.781 211.469C305.781 215.735 305.38 220.536 304.849 222.136C304.312 224 304.448 225.203 305.251 225.203C305.917 225.203 307.645 221.735 308.849 217.469C312.312 205.469 312.584 205.333 313.38 215.203C313.917 220.265 314.312 223.469 314.448 222.265C314.584 221.068 315.38 219.599 316.183 219.068C317.251 218.401 317.516 219.469 317.115 222.401C316.713 225.203 316.979 226.136 317.781 225.333C319.645 223.469 319.516 208.932 317.516 205.869C316.047 203.469 315.917 203.469 316.713 206.536C317.115 208.401 315.645 206.401 313.645 202.265C311.645 198 309.645 194.265 309.251 194C308.849 193.599 308.713 196.932 308.979 201.599Z" fill="white"/>
    <path d="M210.979 198.536C210.979 200.401 211.251 201.068 211.645 200.136C211.917 199.333 211.917 197.735 211.645 196.803C211.251 196 210.979 196.667 210.979 198.536Z" fill="white"/>
    <path d="M284.183 196.803C284.047 197.599 283.645 199.469 283.251 200.803C282.584 203.068 282.584 203.068 284.047 200.803C284.849 199.469 285.251 197.735 284.849 196.803C284.448 195.599 284.183 195.599 284.183 196.803Z" fill="white"/>
    <path d="M232.183 203.469C230.849 206.932 230.849 207.068 232.713 204.667C233.781 203.203 234.713 201.599 234.713 200.932C234.713 198.932 233.781 199.869 232.183 203.469Z" fill="white"/>
    <path d="M279.917 207.469C276.979 213.599 276.979 214.136 280.047 209.469C281.781 207.068 282.713 204.803 282.448 204.536C282.047 204.136 280.979 205.469 279.917 207.469Z" fill="white"/>
    <path d="M257.115 215.469C254.047 222.401 252.312 235.068 254.312 236.265C254.979 236.667 255.251 235.068 254.979 232.803C254.713 230.401 256.047 224.136 257.781 218.803C261.645 207.869 261.251 206.265 257.115 215.469Z" fill="white"/>
    <path d="M326.312 213.869C326.849 216 327.251 221.333 327.251 225.469C327.115 229.735 327.251 233.203 327.645 233.203C327.917 233.203 329.516 230.401 331.115 226.803L334.047 220.536L334.713 226.536C335.38 231.599 335.645 232 336.448 229.203C338.183 222.401 338.047 212.803 336.183 215.735C335.251 217.203 334.849 216.932 334.047 214.667C332.713 210.265 331.251 211.333 331.781 216.536C332.183 219.333 331.781 221.203 330.849 221.203C330.047 221.203 329.38 219.869 329.38 218.136C329.38 216.536 328.312 214 327.251 212.536C325.251 210 325.251 210.136 326.312 213.869Z" fill="white"/>
    <path d="M340.183 214.536C342.047 218.667 342.713 219.333 342.713 217.735C342.713 216.932 341.781 215.203 340.584 213.735C338.713 211.333 338.713 211.333 340.183 214.536Z" fill="white"/>
    <path d="M186.312 219.869C186.713 222.401 187.917 226.932 188.979 229.735C189.917 232.667 190.448 235.203 190.183 235.469C189.38 236.265 186.183 229.869 184.047 223.469C181.516 215.469 180.849 218.803 183.38 227.469C185.917 236.401 190.183 243.869 192.584 243.869C193.516 243.869 195.38 245.068 196.713 246.536C198.047 248.136 199.917 249.068 200.849 248.667C201.645 248.401 204.584 249.599 207.251 251.333C209.917 253.203 212.047 254.265 212.047 253.869C212.047 252.265 202.312 242.667 201.38 243.203C199.516 244.401 193.645 236.136 190.849 228.265C186.584 216.536 185.38 214.401 186.312 219.869Z" fill="white"/>
    <path d="M242.849 220.667C242.849 222.136 243.251 222.536 243.645 221.469C244.047 220.536 243.917 219.333 243.516 218.932C243.115 218.401 242.713 219.203 242.849 220.667Z" fill="white"/>
    <path d="M350.584 225.203L350.448 232.536L348.979 227.333C347.516 222.401 347.38 222.803 347.251 233.735C347.251 244.401 347.38 244.932 348.979 241.068C349.917 238.803 350.713 236.136 350.713 235.068C350.713 234.136 351.38 232.932 352.312 232.401C353.38 231.735 353.516 232.932 352.849 236.932C351.917 243.333 352.448 243.869 355.516 239.203C357.38 236.265 357.38 235.599 355.516 231.735C354.312 229.333 353.38 226.136 353.38 224.667C353.38 223.068 352.713 220.932 352.047 219.869C351.115 218.401 350.713 220 350.584 225.203Z" fill="white"/>
    <path d="M180.183 228.536C180.047 231.469 184.849 242.536 186.047 242.536C186.448 242.536 186.448 241.869 186.047 241.068C185.516 240.401 184.047 236.536 182.584 232.803C181.251 228.932 180.183 227.068 180.183 228.536Z" fill="white"/>
    <path d="M247.251 231.203C248.312 236.803 255.251 247.869 257.645 247.869C258.448 247.869 257.917 246.536 256.448 244.803C252.849 240.932 249.38 234 249.38 230.667C249.38 229.203 248.713 227.599 247.917 227.068C246.713 226.401 246.584 227.599 247.251 231.203Z" fill="white"/>
    <path d="M204.047 230.932C204.047 233.203 207.917 239.333 210.849 241.869C214.047 244.536 214.047 244.536 211.917 241.869C210.713 240.401 208.448 237.068 206.849 234.536C205.38 232 204.047 230.401 204.047 230.932Z" fill="white"/>
    <path d="M209.251 232.536C211.516 236.932 213.38 239.333 213.38 237.869C213.38 237.068 212.047 235.068 210.584 233.203C208.849 230.932 208.312 230.803 209.251 232.536Z" fill="white"/>
    <path d="M368.183 232.536C368.047 234.803 367.781 234.932 366.713 233.203C365.781 231.735 365.38 233.333 365.516 238.536C365.516 245.599 365.516 245.735 367.516 242.536C369.38 239.333 369.38 239.333 368.713 244.536C368.183 248.265 368.312 249.203 369.251 247.869C371.251 244.667 372.584 235.869 370.979 235.869C370.183 235.869 369.251 234.536 368.979 232.803C368.448 230.265 368.448 230.265 368.183 232.536Z" fill="white"/>
    <path d="M201.38 235.599C201.38 237.333 210.849 249.469 211.645 248.667C212.047 248.401 209.781 244.932 206.849 241.203C203.781 237.333 201.38 234.803 201.38 235.599Z" fill="white"/>
    <path d="M224.183 235.599C224.047 236.536 224.979 239.469 226.047 242.136C228.849 248.667 228.584 248.932 224.047 244.536C221.917 242.401 219.781 241.068 219.38 241.333C218.448 242.401 225.917 250.932 228.183 251.333C229.251 251.469 231.251 252.136 232.584 252.667C234.584 253.469 234.849 253.203 234.047 251.869C233.251 250.536 233.516 250.265 235.115 250.932C241.38 253.469 241.645 253.203 236.584 249.469C231.251 245.599 226.584 240 224.979 235.869C224.584 234.536 224.183 234.401 224.183 235.599Z" fill="white"/>
    <path d="M199.516 240.265C199.917 241.599 200.713 242.265 201.115 241.869C201.516 241.469 201.115 240.401 200.183 239.469C198.849 238.265 198.713 238.401 199.516 240.265Z" fill="white"/>
    <path d="M360.047 242C358.584 245.599 358.312 248.803 359.38 247.599C360.448 246.536 362.713 238.536 361.917 238.536C361.645 238.536 360.713 240.136 360.047 242Z" fill="white"/>
    <path d="M336.183 243.469C334.849 246.932 334.849 247.068 336.713 244.667C337.781 243.203 338.713 241.599 338.713 240.932C338.713 238.932 337.781 239.869 336.183 243.469Z" fill="white"/>
    <path d="M373.516 244.803C373.38 245.599 372.979 247.469 372.584 248.803C371.917 251.068 371.917 251.068 373.38 248.803C374.183 247.469 374.584 245.735 374.183 244.803C373.781 243.599 373.516 243.599 373.516 244.803Z" fill="white"/>
    <path d="M380.047 245.735C380.047 248.401 381.516 251.869 382.584 251.869C383.115 251.869 383.38 250 382.979 247.869C382.448 243.869 380.047 242.136 380.047 245.735Z" fill="white"/>
    <path d="M384.979 274.136C384.584 274.803 386.312 276.136 388.849 277.333C391.516 278.667 393.115 278.932 392.979 278C392.448 274.803 386.312 271.869 384.979 274.136Z" fill="white"/>
    <path d="M374.047 279.735L376.713 281.068L374.047 281.203L371.38 281.333L374.047 282.536C376.312 283.469 376.183 283.735 372.713 283.869C369.38 284 369.917 284.401 376.047 286.401C380.047 287.735 385.516 289.869 388.047 291.203L392.713 293.599L389.645 290.136C386.849 287.068 386.713 286.667 388.713 285.599C390.584 284.536 389.917 283.869 385.115 282.136C378.312 279.599 369.781 277.735 374.047 279.735Z" fill="white"/>
    <path d="M346.713 283.203C346.713 284.265 345.917 285.203 345.115 285.333C342.183 285.469 348.584 287.735 352.047 287.735C354.713 287.869 354.979 287.599 353.38 286.536C351.781 285.469 351.781 285.203 354.047 285.203C355.917 285.068 355.38 284.536 352.183 283.203C346.713 280.803 346.713 280.803 346.713 283.203Z" fill="white"/>
    <path d="M343.115 291.068C344.849 292.401 345.115 293.068 343.781 293.599C341.645 294.265 342.448 295.203 346.584 296.536C348.713 297.203 349.38 297.068 348.849 296C348.183 295.068 349.115 294.536 350.979 294.401C353.251 294.265 353.38 294 351.781 293.599C350.448 293.333 349.38 292.136 349.38 291.068C349.38 289.869 347.917 289.203 345.115 289.203C341.115 289.333 340.979 289.469 343.115 291.068Z" fill="white"/>
    <path d="M374.047 293.203C371.917 293.735 370.713 294.265 371.516 294.401C372.183 294.401 374.047 295.469 375.516 296.536C377.115 297.735 377.251 298.265 376.047 298C369.917 296.265 366.713 296 366.713 297.068C366.713 297.735 368.979 298.667 371.645 299.203C378.849 300.536 382.312 302.536 379.917 304C378.448 304.932 378.448 305.203 380.183 305.203C381.38 305.203 384.448 305.469 386.849 306L391.38 306.667L387.781 304.536C383.251 302 382.979 300.667 386.979 302C389.781 302.803 389.781 302.667 388.183 300.667C386.584 298.803 386.584 298.136 387.917 297.333C388.979 296.536 387.781 295.469 384.183 294C381.115 292.803 378.584 292 378.312 292C378.183 292.136 376.312 292.667 374.047 293.203Z" fill="white"/>
    <path d="M345.917 303.203C348.849 305.469 351.251 305.869 350.047 304C349.645 303.203 351.38 302.932 354.312 303.203C358.448 303.735 358.849 303.599 356.047 302.667C354.183 302 350.584 301.469 348.047 301.333C343.645 301.333 343.516 301.469 345.917 303.203Z" fill="white"/>
    <path d="M373.917 311.469C377.781 311.869 378.713 312.401 377.251 313.333C375.917 314.136 376.849 314.536 380.448 314.536C383.115 314.536 385.38 314 385.38 313.333C385.38 312.667 386.448 311.735 387.781 311.469C388.979 311.068 385.251 310.932 379.38 310.932C373.516 310.932 371.115 311.203 373.917 311.469Z" fill="white"/>
    <path d="M355.251 366.803C354.713 367.599 354.183 370.667 354.047 373.469C353.917 376.136 352.979 379.333 352.183 380.401C351.251 381.469 349.38 386.803 348.047 392.136C346.584 397.469 345.781 399.469 346.183 396.536C347.781 385.333 347.917 379.869 346.448 379.869C345.645 379.869 345.781 378.932 346.849 377.599C348.448 375.599 348.448 375.469 346.047 376.401C343.917 377.203 343.645 377.068 345.115 375.735C348.448 372.265 346.584 372 341.917 375.203C339.115 377.068 335.115 378.536 332.713 378.536H328.312L327.645 393.469C327.38 401.735 326.713 410 326.183 411.735C324.849 417.599 321.251 427.203 319.38 430.536C317.115 434.536 316.849 433.469 318.713 428.401C319.516 426.401 319.781 423.869 319.38 422.803C318.183 419.599 314.584 423.599 315.251 427.333C315.645 429.068 315.251 430.803 314.584 431.333C313.781 431.735 313.516 432.932 313.917 433.869C314.312 434.932 313.516 436.401 312.312 437.469C310.584 438.932 310.448 438.932 311.38 437.203C312.047 436.136 312.713 434 312.713 432.536C312.713 431.068 313.251 429.203 313.781 428.265C314.448 427.203 313.781 427.068 310.713 428.265C307.917 429.333 306.312 429.333 305.251 428.265C304.183 427.203 302.979 427.735 300.584 430.136C298.713 432 296.047 433.203 294.312 433.068C292.713 432.803 289.917 433.469 288.312 434.401C286.584 435.333 283.781 435.735 282.047 435.333C279.917 434.803 278.448 435.203 277.645 436.667C276.713 438.401 275.251 438.803 271.645 438.136C267.781 437.599 266.849 437.869 266.312 440C265.516 442.803 261.917 442.265 259.251 438.932C258.047 437.469 257.516 438 256.979 441.203C256.047 445.735 252.979 446.401 249.251 443.068C246.979 441.068 246.713 441.068 245.251 444.401C243.645 447.735 238.713 449.333 238.713 446.536C238.713 445.735 237.251 445.469 235.38 446C232.979 446.536 231.781 446.136 231.251 444.667C230.849 443.469 229.115 442.667 227.251 442.803C223.38 443.203 223.516 442.667 226.584 450.265C228.047 453.735 229.516 460 229.917 464.265C230.713 474.402 233.38 478.536 239.115 478.536C242.448 478.536 242.979 478.136 241.38 477.068C236.849 474 248.979 477.735 255.917 481.598C263.115 485.598 263.251 485.735 268.979 483.598C273.645 481.869 274.448 481.869 273.251 483.333C270.979 486.136 273.516 485.598 276.584 482.667C278.183 481.203 286.183 476.667 294.584 472.536C302.849 468.402 313.115 462.803 317.251 460C327.781 452.803 338.849 442.536 337.781 440.932C337.38 440.136 337.645 439.869 338.448 440.401C339.251 440.803 340.183 440.667 340.713 439.869C341.251 439.068 342.047 438.803 342.448 439.068C342.979 439.333 344.849 438.536 346.713 437.203C349.251 435.333 350.047 433.068 350.849 425.735C351.516 420.667 351.917 412.932 352.047 408.536C352.047 404.136 353.251 395.068 354.584 388.536C358.312 371.068 358.979 365.203 357.516 365.203C356.849 365.203 355.781 365.869 355.251 366.803ZM337.115 410.265C334.849 417.735 332.584 423.599 332.312 423.203C331.645 422.536 332.979 417.068 336.979 405.203C338.047 401.869 339.251 398.401 339.516 397.333C339.781 396.265 340.448 395.735 340.713 396.136C341.115 396.401 339.38 402.803 337.115 410.265ZM338.047 418.136C337.645 420.265 336.584 422.401 335.917 423.068C335.251 423.869 335.38 422.401 336.047 419.735C336.849 417.333 337.38 415.068 337.38 414.932C337.38 414.667 337.781 414.536 338.183 414.536C338.584 414.536 338.584 416.136 338.047 418.136ZM341.38 430.401C340.713 431.869 340.448 433.869 340.849 434.932C341.251 436 340.979 437.333 340.312 437.735C338.584 438.803 338.713 431.599 340.312 429.469C342.448 427.068 342.979 427.469 341.38 430.401ZM303.645 437.469C303.251 438.536 302.849 438.136 302.849 436.667C302.713 435.203 303.115 434.401 303.516 434.932C303.917 435.333 304.047 436.536 303.645 437.469ZM292.979 441.469C292.584 442.401 292.312 441.735 292.312 439.869C292.312 438 292.584 437.333 292.979 438.136C293.251 439.068 293.251 440.667 292.979 441.469ZM283.917 448.536C283.917 449.203 283.38 448.932 282.713 447.869C282.047 446.803 281.516 444.932 281.516 443.869C281.516 441.735 283.781 446 283.917 448.536ZM241.251 457.869C241.251 459.333 240.849 459.735 240.448 458.803C240.183 458 239.251 457.469 238.584 457.869C237.917 458.401 237.781 457.599 238.312 456.401C238.979 454.667 238.713 454.401 237.38 455.203C236.047 456 235.781 455.735 236.448 454C236.979 452.667 237.38 450.932 237.38 450.136C237.516 449.203 238.312 450 239.38 451.869C240.448 453.735 241.251 456.401 241.251 457.869ZM251.781 455.869C253.38 462.401 252.584 462.803 249.917 456.536C247.781 451.203 247.645 450.536 249.251 450.536C249.917 450.536 250.979 452.932 251.781 455.869ZM260.312 469.469C259.38 470.402 258.713 470.536 258.713 469.735C258.713 467.869 260.312 466.265 261.251 467.203C261.516 467.598 261.115 468.667 260.312 469.469ZM274.183 479.203C272.713 480.265 270.849 481.203 270.183 481.203C269.38 481.068 270.183 480.265 272.047 479.203C276.312 476.667 277.38 476.803 274.183 479.203Z" fill="white"/>
    <path d="M308.448 406.136C306.047 407.068 306.183 415.869 308.448 415.869C311.917 415.869 314.979 412.401 314.448 409.203C314.047 406 311.645 404.667 308.448 406.136Z" fill="white"/>
    <path d="M296.849 410C295.645 411.068 294.713 413.203 294.713 414.667C294.713 416.667 295.645 417.203 299.38 417.203C303.516 417.203 304.047 416.803 304.047 413.869C304.047 409.469 299.645 407.068 296.849 410Z" fill="white"/>
    <path d="M285.251 411.203C284.047 412.536 283.38 414.803 283.781 417.068C284.312 420.667 284.448 420.803 288.183 419.333C291.516 418.136 292.047 417.333 291.781 413.869C291.38 409.333 288.312 408.136 285.251 411.203Z" fill="white"/>
    <path d="M224.849 416.136C224.312 418.536 223.781 422.265 223.645 424.401C223.38 427.735 223.917 428.265 226.979 428.401C230.183 428.536 230.584 428.136 231.115 423.203C232.047 413.068 226.713 407.068 224.849 416.136Z" fill="white"/>
    <path d="M235.38 413.469C230.979 427.869 231.251 429.599 237.645 428.932C241.917 428.536 242.047 428.401 241.645 422.536C241.38 419.203 240.849 415.469 240.584 414.136C239.781 411.469 236.183 411.068 235.38 413.469Z" fill="white"/>
    <path d="M265.516 413.735C263.645 415.869 264.849 425.203 266.979 425.203C267.645 425.203 269.38 424.667 270.713 423.869C272.849 422.667 272.979 422.136 271.38 417.599C269.38 412 267.781 410.932 265.516 413.735Z" fill="white"/>
    <path d="M274.979 414C273.251 417.068 276.047 424.136 278.713 423.599C281.645 422.932 281.516 412.667 278.448 412.136C277.251 411.869 275.645 412.667 274.979 414Z" fill="white"/>
    <path d="M255.781 416.803C254.183 420.136 254.312 426.932 256.047 426.536C262.183 425.469 262.979 424.803 262.183 420.803C261.781 418.667 261.38 416 261.38 415.068C261.38 411.869 257.645 413.068 255.781 416.803Z" fill="white"/>
    <path d="M218.183 420.136C217.645 423.333 217.781 426.136 218.584 426.932C220.448 428.803 220.849 428.136 221.781 420.803C222.448 416 222.183 414.536 220.849 414.536C219.781 414.536 218.713 416.803 218.183 420.136Z" fill="white"/>
    <path d="M244.849 416.667C242.047 423.869 245.516 430.667 250.584 427.869C253.917 426.136 253.781 426.401 251.781 419.735C250.183 414.265 246.448 412.667 244.849 416.667Z" fill="white"/>
    <path d="M307.251 420.536C306.713 421.599 306.849 423.469 307.251 424.667C308.047 426.667 308.584 426.536 311.38 423.869C313.251 422.136 314.713 420.265 314.713 419.599C314.713 417.735 308.047 418.536 307.251 420.536Z" fill="white"/>
    <path d="M292.979 422.136C292.448 422.536 292.047 424.401 292.047 426.136C292.047 428.265 292.849 429.203 294.713 429.203C297.251 429.203 302.713 424.401 302.713 422.265C302.713 420.932 294.183 420.803 292.979 422.136Z" fill="white"/>
    <path d="M281.115 425.869C280.047 428.401 280.047 429.599 281.38 431.203C282.312 432.265 283.516 433.203 284.183 433.203C286.312 433.203 289.38 428.932 289.38 425.735C289.38 421.203 283.251 421.203 281.115 425.869Z" fill="white"/>
    <path d="M270.979 426.803C267.917 429.869 270.047 435.869 274.183 435.869C276.584 435.869 277.516 432.265 276.047 428.536C274.584 424.803 273.38 424.401 270.979 426.803Z" fill="white"/>
    <path d="M260.849 429.599C258.979 430.932 258.849 431.869 259.917 435.068C260.713 437.068 262.183 438.536 263.115 438.265C265.115 437.469 265.917 432.667 264.448 429.869C263.516 428.136 262.849 428.136 260.849 429.599Z" fill="white"/>
    <path d="M250.448 430.667C247.516 432.265 247.38 435.735 250.183 439.599C253.38 444.136 254.713 443.068 254.713 435.869C254.713 428.932 254.312 428.401 250.448 430.667Z" fill="white"/>
    <path d="M221.38 431.869C221.38 434 225.516 439.869 226.979 439.869C228.713 439.869 226.979 432.932 224.979 431.599C222.713 430.136 221.38 430.265 221.38 431.869Z" fill="white"/>
    <path d="M229.38 432.401C229.38 435.469 233.38 443.869 234.713 443.869C236.448 443.869 236.448 441.735 234.584 435.469C233.38 430.803 229.38 428.401 229.38 432.401Z" fill="white"/>
    <path d="M236.047 432.401C236.047 433.869 239.38 442.136 240.448 443.599C242.448 446.136 244.047 443.203 244.047 437.068C244.047 432.667 243.781 432.265 240.047 432.136C237.917 432.136 236.047 432.265 236.047 432.401Z" fill="white"/>
    <path d="M501.516 156.932L492.979 159.203L492.584 177.203C492.183 187.068 491.781 197.203 491.38 199.469C490.849 204 491.516 204.536 496.979 203.068C498.713 202.536 499.917 201.333 499.645 200C499.516 198.803 499.917 195.068 500.448 191.469C501.516 185.469 501.781 185.203 507.38 183.735C515.917 181.599 517.516 179.068 518.312 167.068C519.115 153.333 517.917 152.667 501.516 156.932ZM509.38 169.203C509.38 172.803 508.979 175.869 508.448 175.869C507.781 175.869 506.047 176.265 504.448 176.667C501.645 177.469 501.38 177.068 501.38 171.333C501.38 166.136 501.917 164.932 504.448 163.869C509.115 162 509.38 162.136 509.38 169.203Z" fill="white"/>
    <path d="M473.781 163.068C464.584 165.068 461.38 168.401 460.713 176.667C458.713 202.265 458.713 207.599 460.713 209.203C463.38 211.469 479.251 208.265 482.312 204.932C483.917 203.203 484.713 198 485.645 183.599C486.584 166.401 486.584 164.401 484.448 162.803C483.251 162 481.917 161.333 481.516 161.333C481.115 161.469 477.516 162.136 473.781 163.068ZM477.251 181.469C476.979 197.599 476.183 200.401 471.645 200.932L467.781 201.333L468.713 186.932C469.516 172.536 470.312 170.536 475.115 170.536C477.115 170.536 477.38 171.869 477.251 181.469Z" fill="white"/>
    <path d="M447.781 168.803C445.917 169.203 445.38 171.203 445.115 178.803C444.713 188 444.584 188.401 441.115 189.333C436.849 190.401 436.713 189.735 437.251 178.136C437.645 171.599 437.115 171.068 431.251 172.667C429.38 173.203 428.448 174.401 428.448 176.265C428.448 177.869 428.047 188.265 427.516 199.469L426.448 219.735L430.979 218.536C433.38 217.735 435.38 217.203 435.516 217.203C435.645 217.203 435.781 213.203 435.917 208.265C436.183 198.265 436.584 197.599 441.38 196.932C444.183 196.667 444.713 197.068 444.448 199.869C443.251 216 443.115 215.203 446.713 214.803C448.584 214.536 450.448 213.869 450.979 213.469C451.516 212.932 452.312 207.469 452.713 201.203C454.183 178.803 454.979 169.869 455.516 168.932C456.183 167.869 451.645 167.735 447.781 168.803Z" fill="white"/>
    <path d="M408.183 177.869C398.047 180.265 396.312 182.536 395.781 194.265C395.38 205.869 396.448 207.068 405.251 205.068C408.448 204.401 411.38 204 411.645 204.401C412.047 204.803 411.917 207.469 411.38 210.401C410.448 215.735 410.047 216.136 404.448 215.869C403.781 215.735 403.38 214.536 403.516 213.203C403.645 210.401 402.584 210.136 397.781 211.333C395.251 212 394.713 213.068 394.713 217.869C394.713 224.932 396.448 225.735 406.849 223.735C417.516 221.599 419.645 218.932 420.312 207.068C420.849 195.869 419.38 193.735 411.781 195.869C404.849 198 404.047 197.599 404.047 192.536C404.047 189.333 404.849 187.599 406.584 186.536C410.584 184.401 413.645 184.932 413.115 187.469C412.713 190.536 413.781 191.068 418.448 190.136C421.917 189.469 422.183 188.932 421.645 184.265C420.979 178.803 419.251 175.735 416.849 176C416.047 176 412.183 176.932 408.183 177.869Z" fill="white"/>
    <path d="M33.6453 261.203C18.312 266.667 4.97864 281.068 1.38022 296C-2.35469 311.203 1.64531 328.803 11.3802 340.667C39.3803 374.803 95.6453 356.536 98.4479 312.401C99.2505 300 96.9787 291.068 90.7136 281.469C78.5839 262.536 54.1828 254 33.6453 261.203ZM38.0469 285.735C42.9787 287.869 45.3803 291.333 45.3803 296.536C45.3803 301.735 42.0469 306.401 33.2505 313.599C23.1145 321.869 22.9787 323.599 33.1145 322.803C37.2505 322.536 41.3803 321.735 42.1828 321.068C44.312 319.333 45.3803 321.068 45.3803 326.136C45.3803 332.536 41.3803 334.136 30.8495 331.869C26.4479 330.932 21.9172 330.536 20.7136 330.932C15.9172 332.803 19.3803 324.401 28.7136 311.735C35.3803 302.667 37.2505 295.869 34.0469 291.068C32.8495 289.203 30.7136 287.869 28.8495 287.869C24.312 287.869 23.5161 289.469 26.8495 292C28.8495 293.469 29.3803 294.932 28.8495 296.932C27.6453 300.667 24.1828 301.735 21.2505 299.068C17.5161 295.735 18.1828 291.203 22.8495 287.333C27.5161 283.469 31.3803 283.068 38.0469 285.735ZM78.4479 288.136C83.3803 293.469 85.6453 309.869 82.7136 319.735C80.9787 325.735 73.7812 333.203 69.6453 333.203C56.0469 333.203 49.5161 313.068 56.9787 294.136C59.6453 287.735 63.2505 285.203 70.0469 285.203C74.0469 285.203 76.312 286 78.4479 288.136Z" fill="white"/>
    <path d="M37.3803 289.068C38.0469 290.536 38.7136 294.265 38.8495 297.469C38.9787 302.803 38.9787 302.932 40.0469 299.333C41.2505 295.735 38.8495 286.536 36.7136 286.536C36.312 286.536 36.5839 287.735 37.3803 289.068Z" fill="white"/>
    <path d="M22.312 297.333C23.2505 298.265 24.312 298.667 24.7136 298.265C25.1145 297.869 24.4479 297.068 23.1145 296.667C21.2505 295.869 21.1145 296 22.312 297.333Z" fill="white"/>
    <path d="M31.1145 328C33.2505 328.536 36.1828 328.536 37.7812 328C39.7812 327.203 38.5839 326.932 33.9172 326.932C28.4479 326.932 28.0469 327.068 31.1145 328Z" fill="white"/>
    <path d="M66.9787 291.469C66.1828 292.803 65.2505 300 64.7136 307.469C63.6453 321.735 65.1145 329.203 68.8495 329.203C72.4479 329.203 73.5161 323.869 73.1145 306.932C72.7136 292.265 72.4479 289.869 70.4479 289.469C69.2505 289.203 67.6453 290.136 66.9787 291.469Z" fill="white"/>
    <path d="M59.9172 296.803C58.0469 301.469 58.0469 316.803 59.7812 321.203C60.7136 323.599 60.8495 321.333 60.4479 313.068C59.9172 306.265 60.312 299.735 61.1145 297.333C62.9787 292.265 61.9172 291.869 59.9172 296.803Z" fill="white"/>
    <path d="M77.3803 305.869C77.3803 312.401 76.9787 319.333 76.5839 321.203C75.9172 323.735 76.0469 324.136 77.3803 323.068C79.5161 321.068 80.7136 301.469 78.9787 297.203C77.7812 294.536 77.5161 296.265 77.3803 305.869Z" fill="white"/>
    <path d="M512.312 261.203C496.979 266.667 483.645 281.068 480.047 296C476.312 311.203 480.312 328.803 490.047 340.667C518.047 374.803 574.312 356.536 577.115 312.401C577.917 300 575.645 291.068 569.38 281.469C557.251 262.536 532.849 254 512.312 261.203ZM516.713 285.735C521.781 287.869 524.047 291.333 524.047 296.803C524.047 301.869 520.584 306.803 512.979 312.536C507.645 316.536 504.047 320.803 504.047 322.932C504.047 323.869 519.38 322.265 520.849 321.068C522.979 319.333 524.047 321.068 524.047 326.136C524.047 332.536 520.047 334.136 509.516 331.869C505.115 330.932 500.584 330.536 499.38 330.932C494.584 332.803 498.047 324.401 507.38 311.735C514.047 302.667 515.917 295.869 512.713 291.068C511.516 289.203 509.38 287.869 507.516 287.869C502.979 287.869 502.183 289.469 505.516 292C507.516 293.469 508.047 294.932 507.516 296.932C506.312 300.667 502.849 301.735 499.917 299.068C496.183 295.735 496.849 291.203 501.516 287.333C506.183 283.469 510.047 283.068 516.713 285.735ZM557.115 288.136C560.448 291.735 562.584 300.536 562.713 310.265C562.849 336 538.584 342 533.38 317.469C530.979 306.536 534.584 291.333 540.448 287.203C544.849 284.136 553.781 284.667 557.115 288.136Z" fill="white"/>
    <path d="M516.047 289.068C516.713 290.536 517.38 294.265 517.516 297.469C517.645 302.803 517.645 302.932 518.713 299.333C519.917 295.735 517.516 286.536 515.38 286.536C514.979 286.536 515.251 287.735 516.047 289.068Z" fill="white"/>
    <path d="M500.979 297.333C501.917 298.265 502.979 298.667 503.38 298.265C503.781 297.869 503.115 297.068 501.781 296.667C499.917 295.869 499.781 296 500.979 297.333Z" fill="white"/>
    <path d="M509.781 328C511.917 328.536 514.849 328.536 516.448 328C518.448 327.203 517.251 326.932 512.584 326.932C507.115 326.932 506.713 327.068 509.781 328Z" fill="white"/>
    <path d="M545.645 291.469C544.849 292.803 543.917 300 543.38 307.469C542.312 321.735 543.781 329.203 547.516 329.203C551.115 329.203 552.183 323.869 551.781 306.932C551.38 292.265 551.115 289.869 549.115 289.469C547.917 289.203 546.312 290.136 545.645 291.469Z" fill="white"/>
    <path d="M538.584 296.803C536.713 301.469 536.713 316.803 538.448 321.203C539.38 323.599 539.516 321.333 539.115 313.068C538.584 306.265 538.979 299.735 539.781 297.333C541.645 292.265 540.584 291.869 538.584 296.803Z" fill="white"/>
    <path d="M556.047 305.869C556.047 312.401 555.645 319.333 555.251 321.203C554.584 323.735 554.713 324.136 556.047 323.068C558.183 321.068 559.38 301.469 557.645 297.203C556.448 294.536 556.183 296.265 556.047 305.869Z" fill="white"/>
    <path d="M448.047 455.333C444.047 458.803 440.979 461.869 441.38 462.401C441.781 462.803 443.917 463.068 446.312 462.803C450.047 462.536 451.516 463.598 460.849 473.869C471.516 485.469 475.781 491.203 474.584 492.402C474.312 492.803 462.047 490 447.38 486.402C417.645 479.068 420.047 478.932 409.115 488.402C402.448 494.136 402.312 497.735 408.849 494.667C413.645 492.536 416.312 494.402 426.849 507.469C431.516 513.203 438.448 521.333 442.312 525.598C449.115 533.068 451.251 538.536 448.047 540.536C446.183 541.598 446.312 545.203 448.183 545.203C450.713 545.203 464.047 533.203 464.047 530.932C464.047 529.598 463.38 529.203 461.781 529.869C456.047 532.265 454.448 532.136 451.115 529.068C445.917 524.136 424.979 498.536 425.645 497.735C426.448 497.068 440.713 500 456.183 503.869C461.917 505.333 470.979 507.333 476.312 508.402C481.645 509.469 486.979 510.667 488.047 511.068C489.115 511.469 491.516 510.667 493.251 509.469L496.312 506.932L489.115 499.068C485.115 494.803 476.047 484 468.849 475.333C455.781 459.333 455.251 458.136 458.047 451.469C459.781 447.469 455.781 448.932 448.047 455.333ZM453.115 494.803C467.115 498 478.713 500.932 478.713 501.469C478.713 503.068 469.781 501.469 448.448 496.402C412.584 487.735 415.917 486.536 453.115 494.803Z" fill="white"/>
    <path d="M96.7136 452.932C93.7812 454.401 88.4479 458.401 84.8495 462C67.3803 479.333 67.5161 502.136 85.1145 513.333C88.4479 515.469 92.312 517.469 93.7812 518C96.1828 518.803 96.1828 518.932 93.9172 521.333C91.6453 523.869 91.7812 524.136 96.7136 529.203C99.5161 532.136 102.183 534.265 102.448 533.869C102.849 533.598 102.448 532.402 101.645 531.469C100.448 530.136 102.584 527.333 111.251 518.667C121.115 508.803 122.584 507.735 125.917 508.667C131.917 510.136 129.781 506.136 120.047 498C111.645 490.803 108.979 490.136 112.047 495.869C114.183 499.869 112.714 502.932 106.183 507.598C99.9172 512.136 94.5839 512.932 88.9787 510.402C85.1145 508.667 81.3803 502.667 81.3803 498.265C81.3803 491.469 93.7812 475.068 105.917 465.869C118.047 456.667 131.115 459.869 137.38 473.735C139.251 477.598 139.516 479.869 138.584 482.265C135.781 489.735 140.312 491.735 143.38 484.402C144.448 481.869 146.584 478 148.047 475.735C150.713 472.136 150.713 471.735 148.584 470.932C146.979 470.402 145.38 471.203 143.38 473.869C140.448 477.469 140.312 477.469 140.979 474.402C141.781 469.869 134.713 459.469 127.917 454.932C120.448 450 104.979 449.068 96.7136 452.932ZM118.714 454.536C118.714 455.203 117.115 455.869 115.115 455.869C109.516 455.869 99.9172 461.203 92.9787 468.136C86.8495 474.265 78.7136 488.667 78.7136 493.469C78.7136 494.803 78.1828 495.869 77.3803 495.869C75.5161 495.869 77.2505 488.265 81.1145 479.869C85.3803 470.667 95.3803 460.667 104.312 456.536C111.516 453.203 118.714 452.136 118.714 454.536Z" fill="white"/>
    <path d="M383.645 502.136C370.584 508.402 367.38 511.869 374.448 511.869C376.584 511.869 379.251 512.932 380.448 514.136C382.979 517.068 402.713 558.136 402.713 560.803C402.713 561.734 401.781 564 400.584 565.734C396.979 571.333 400.849 570.803 414.849 563.869C428.312 557.068 429.781 555.203 422.047 554.265C418.713 554 417.38 552.536 413.781 545.869C407.917 534.932 396.047 506.803 396.047 503.735C396.047 502.402 396.713 500.932 397.38 500.536C398.979 499.598 399.115 495.869 397.645 495.869C397.115 495.869 390.713 498.667 383.645 502.136ZM400.312 532.265C410.183 552.136 413.781 560.667 410.979 557.869C409.251 556.136 385.38 508.803 385.38 507.203C385.516 504.265 390.713 513.203 400.312 532.265Z" fill="white"/>
    <path d="M161.645 500C149.251 506.265 140.047 522.536 140.047 538.667C140.047 555.333 148.979 565.333 165.645 567.333C176.312 568.536 183.251 566.136 191.516 558.265C201.645 548.667 206.047 539.333 205.917 527.068C205.781 516.932 204.448 513.598 197.516 506.136C189.115 496.932 173.251 494.265 161.645 500ZM170.047 502.402C160.312 508.402 152.183 522.667 149.115 538.803C148.183 543.869 146.849 547.869 146.312 547.869C144.448 547.869 146.584 533.598 149.645 525.598C154.584 512.265 165.38 499.869 171.917 499.869C173.251 499.869 172.448 500.803 170.047 502.402ZM189.251 506C192.713 508.803 193.38 510.402 193.38 514.932C193.251 522.402 188.584 533.333 179.645 546.803C169.781 561.734 162.979 564.803 155.38 557.734C152.047 554.667 151.781 553.734 152.448 547.598C153.38 539.869 162.979 519.203 169.38 511.203C176.849 501.869 182.584 500.265 189.251 506ZM199.917 523.469C200.183 535.735 189.115 555.333 178.979 560.932C171.38 565.203 168.713 563.869 176.183 559.598C187.516 552.932 197.251 535.333 197.516 521.203C197.516 511.469 199.781 513.598 199.917 523.469Z" fill="white"/>
    <path d="M222.713 519.735C222.713 520.402 224.183 521.869 226.047 523.068C230.183 525.735 230.183 527.469 226.713 554.536C223.516 578 222.713 580.803 218.047 582.536C213.917 584.136 213.781 586.265 217.781 587.068C223.38 588.265 239.917 590.536 243.251 590.536C247.917 590.536 247.645 587.734 242.584 584.932L238.448 582.536L239.38 573.598C240.713 559.469 240.713 559.469 247.115 560.401C250.183 560.932 252.849 561.469 253.115 561.734C254.584 563.333 259.917 587.333 259.251 589.869C258.448 593.203 257.917 593.068 275.115 595.333C281.917 596.265 283.917 594.136 278.183 591.869C274.713 590.667 273.38 587.469 270.047 572.536C267.645 562.401 267.38 562.932 275.645 558.401C283.917 553.869 286.713 539.333 280.713 532.136C275.781 526.265 268.713 524 246.183 521.203C222.849 518.136 222.713 518.136 222.713 519.735ZM236.713 553.469C233.251 577.333 230.849 587.068 230.849 577.203C230.713 567.203 238.849 520.803 239.781 526.136C240.047 527.735 238.584 540 236.713 553.469ZM265.645 530.536C270.312 536.265 267.516 549.469 260.849 553.869C258.183 555.734 255.781 556 250.047 555.203C241.781 554.265 241.917 554.667 244.183 541.333C246.713 524.667 245.781 526.136 255.115 526.932C261.38 527.469 263.917 528.402 265.645 530.536ZM276.047 540.265C276.047 545.469 272.713 552.667 269.516 554.536C265.917 556.401 266.047 555.734 270.183 549.598C273.251 545.203 273.516 543.598 272.979 536.536C272.448 528.932 272.448 528.803 274.183 532.536C275.115 534.667 275.917 538.265 276.047 540.265ZM264.713 571.598C265.917 576.136 266.713 581.598 266.448 583.598C266.183 586 264.979 583.068 262.979 574.803C259.645 560.667 259.645 560.265 261.38 562C262.047 562.667 263.516 566.932 264.713 571.598Z" fill="white"/>
    <path d="M315.38 522C294.849 526 292.047 526.803 292.047 528C292.047 528.803 294.183 530.265 296.713 531.333C301.917 533.469 301.38 531.869 306.047 559.203C307.917 570.136 309.781 580.803 310.183 582.803C310.713 585.469 310.047 587.068 307.251 589.734C305.115 591.598 303.917 593.598 304.448 594C304.979 594.536 311.917 594 319.781 592.803C348.047 588.401 358.849 582.932 364.849 570C368.849 561.598 368.979 551.734 365.516 542.536C357.917 522.402 343.38 516.536 315.38 522ZM335.38 526.536C341.781 529.598 344.448 533.598 347.115 544.536C350.312 557.068 351.115 566.803 349.516 572.932C348.183 577.469 346.979 579.068 342.849 581.203C339.917 582.667 335.251 584.136 332.312 584.667L327.115 585.469L325.516 579.068C323.516 570.265 317.38 533.333 317.38 529.598C317.38 527.333 318.448 526.402 321.115 525.735C323.115 525.333 325.38 524.803 326.047 524.536C328.713 523.598 329.917 523.869 335.38 526.536ZM353.251 534.265C360.047 548.136 360.979 572.667 354.713 576.536C353.516 577.333 353.38 576.667 354.183 574.401C354.849 572.667 355.38 565.203 355.251 557.869C355.115 542.536 352.849 534.932 346.312 528L342.047 523.469L346.448 526.402C348.849 528.136 351.917 531.598 353.251 534.265ZM314.047 556C320.047 587.869 319.781 586.536 318.713 587.203C317.516 588 313.38 568 307.38 532.536C306.849 529.869 307.115 529.068 308.047 530C308.849 530.803 311.516 542.402 314.047 556Z" fill="white"/>
    </svg>
    